<svg height="512pt" viewBox="0 -64 512 512" width="512pt" xmlns="http://www.w3.org/2000/svg"><path d="m496 64v-16c0-8.824219-7.175781-16-16-16h-352c-8.824219 0-16 7.175781-16 16v16c-1.726562 0-3.414062.558594-4.800781 1.601562l-27.199219 20.398438v-54c0-1.574219-.472656-3.128906-1.34375-4.441406l-16-24c-1.488281-2.222656-3.984375-3.558594-6.65625-3.558594h-56v16h32v32h-16v16h16v16h-16c-8.824219 0-16 7.175781-16 16v48c0 8.824219 7.175781 16 16 16h16v16h-16v16h16v16h-16v16h16v16h-16c-8.824219 0-16 7.175781-16 16v48c0 8.824219 7.175781 16 16 16h16v16h-16v16h16v24c0 4.414062 3.585938 8 8 8h16c2.671875 0 5.167969-1.335938 6.65625-3.558594l16-24c.871094-1.320312 1.34375-2.867187 1.34375-4.441406v-55.359375l27 21.597656c1.425781 1.144531 3.183594 1.761719 5 1.761719h16v16h-16v16h24c4.414062 0 8-3.585938 8-8v-24h32v16c0 8.824219 7.175781 16 16 16h16c8.824219 0 16-7.175781 16-16v-16h16v16c0 8.824219 7.175781 16 16 16h128c8.824219 0 16-7.175781 16-16v-16h32v16c0 2.121094.839844 4.160156 2.34375 5.65625l8 8c1.496094 1.503906 3.527344 2.34375 5.65625 2.34375h32v-16h-28.6875l-3.3125-3.3125v-12.6875h48c8.824219 0 16-7.175781 16-16v-224c0-8.824219-7.175781-16-16-16zm-368-16h352v16h-352zm-112 96v-48h16v48zm0 160v-48h16v48zm48 45.574219-12.28125 18.425781h-3.71875v-352h3.71875l12.28125 18.425781zm144.007812-13.574219h-16.007812v-16h16zm159.992188-32v16h16v16h-128v-16h96v-16h-237.191406l-34.808594-27.839844v-170.160156l34.664062-26h381.335938v56h-117.335938l-29.863281-22.398438c-1.386719-1.042968-3.066406-1.601562-4.800781-1.601562h-56v16h53.335938l29.863281 22.398438c1.386719 1.042968 3.066406 1.601562 4.800781 1.601562h120v16h-80v16h80v16h-80v16h80v16h-128c-2.128906 0-4.160156.839844-5.65625 2.34375l-21.65625 21.65625h-52.6875v16h56c2.128906 0 4.160156-.839844 5.65625-2.34375l21.65625-21.65625h124.6875v56zm0 0"/><path d="m286.046875 211.3125c.554687-2.695312.9375-5.433594 1.257813-8.191406.054687-.464844.160156-.921875.207031-1.394532.320312-3.214843.488281-6.453124.488281-9.726562s-.167969-6.511719-.496094-9.726562c-.046875-.472657-.152344-.921876-.207031-1.394532-.320313-2.75-.703125-5.496094-1.257813-8.191406-.015624-.0625-.03125-.128906-.046874-.199219-3.734376-18.199219-12.671876-34.9375-26.113282-48.375-13.445312-13.441406-30.175781-22.378906-48.375-26.113281-.0625-.015625-.128906-.03125-.199218-.046875-2.695313-.554687-5.433594-.9375-8.191407-1.257813-.464843-.054687-.921875-.160156-1.394531-.207031-3.207031-.320312-6.445312-.488281-9.71875-.488281s-6.511719.167969-9.726562.496094c-.472657.046875-.921876.152344-1.394532.207031-2.75.320313-5.496094.703125-8.191406 1.257813-.0625.015624-.128906.03125-.199219.046874-18.199219 3.734376-34.9375 12.671876-48.375 26.113282-13.441406 13.445312-22.378906 30.175781-26.113281 48.375-.015625.0625-.03125.128906-.046875.199218-.554687 2.695313-.9375 5.433594-1.257813 8.191407-.054687.464843-.160156.921875-.207031 1.394531-.320312 3.207031-.488281 6.445312-.488281 9.71875s.167969 6.511719.496094 9.726562c.046875.472657.152344.921876.207031 1.394532.320313 2.75.703125 5.496094 1.257813 8.191406.015624.0625.03125.128906.046874.199219 3.734376 18.199219 12.671876 34.9375 26.113282 48.375 13.445312 13.441406 30.175781 22.378906 48.375 26.113281.0625.015625.128906.03125.199218.046875 2.695313.554687 5.433594.9375 8.191407 1.257813.464843.054687.921875.160156 1.394531.207031 3.207031.320312 6.445312.488281 9.71875.488281s6.511719-.167969 9.726562-.496094c.472657-.046875.921876-.152344 1.394532-.207031 2.75-.320313 5.496094-.703125 8.191406-1.257813.0625-.015624.128906-.03125.199219-.046874 18.199219-3.734376 34.9375-12.671876 48.375-26.113282 13.441406-13.445312 22.378906-30.175781 26.113281-48.375.015625-.0625.03125-.128906.046875-.191406zm-16.191406-1.207031c-.246094 1.0625-.527344 2.117187-.816407 3.167969-.695312 2.527343-1.519531 5.007812-2.453124 7.445312-.328126.855469-.609376 1.738281-.96875 2.578125-1.191407 2.800781-2.601563 5.511719-4.113282 8.167969-.632812 1.109375-1.304687 2.191406-1.992187 3.269531-1.367188 2.152344-2.839844 4.25-4.421875 6.273437-.410156.519532-.769532 1.070313-1.1875 1.585938l-28.527344-28.53125c1.289062-1.941406 2.34375-4.007812 3.265625-6.125.0625-.144531.152344-.265625.214844-.402344 1.023437-2.421875 1.824219-4.933594 2.34375-7.535156h40.394531c0 .039062 0 .078125-.007812.121094-.339844 3.382812-.96875 6.703125-1.730469 9.984375zm-35.113281 49.40625c-1.078126.6875-2.167969 1.359375-3.277344 1.992187-2.632813 1.496094-5.320313 2.894532-8.097656 4.082032-.878907.375-1.792969.671874-2.6875 1.015624-2.414063.925782-4.878907 1.75-7.382813 2.4375-1.066406.296876-2.128906.578126-3.199219.824219-3.28125.753907-6.59375 1.394531-9.976562 1.730469-.042969.007812-.082032 0-.121094.007812v-40.402343c2.59375-.527344 5.113281-1.328125 7.535156-2.34375.144532-.054688.265625-.152344.402344-.214844 2.117188-.921875 4.183594-1.976563 6.125-3.265625l28.53125 28.527344c-.515625.417968-1.066406.777344-1.585938 1.1875-2.023437 1.582031-4.121093 3.054687-6.265624 4.421875zm-50.863282 12.082031c-3.382812-.335938-6.695312-.976562-9.976562-1.730469-1.078125-.246093-2.140625-.527343-3.199219-.824219-2.503906-.6875-4.96875-1.511718-7.382813-2.4375-.894531-.34375-1.808593-.640624-2.6875-1.015624-2.777343-1.1875-5.464843-2.578126-8.097656-4.082032-1.109375-.632812-2.199218-1.3125-3.277344-1.992187-2.152343-1.367188-4.242187-2.839844-6.273437-4.414063-.519531-.410156-1.074219-.769531-1.585937-1.1875l28.53125-28.527344c1.941406 1.289063 4.007812 2.34375 6.125 3.265626.144531.0625.265624.152343.402343.214843 2.421875 1.023438 4.933594 1.824219 7.535157 2.34375v40.394531c-.03125-.007812-.070313-.007812-.113282-.007812zm-65.464844-48.226562c-.375-.878907-.671874-1.792969-1.015624-2.6875-.925782-2.414063-1.75-4.878907-2.4375-7.382813-.296876-1.066406-.578126-2.128906-.824219-3.199219-.753907-3.28125-1.394531-6.59375-1.730469-9.976562-.007812-.042969 0-.082032-.007812-.121094h40.402343c.527344 2.59375 1.328125 5.113281 2.34375 7.535156.054688.144532.152344.265625.214844.402344.921875 2.117188 1.976563 4.183594 3.265625 6.125l-28.527344 28.53125c-.417968-.515625-.777344-1.066406-1.1875-1.585938-1.582031-2.023437-3.046875-4.121093-4.414062-6.273437-.6875-1.078125-1.359375-2.167969-1.992188-3.277344-1.503906-2.625-2.894531-5.3125-4.089844-8.089843zm-4.269531-49.457032c.246094-1.078125.527344-2.140625.824219-3.199218.6875-2.503907 1.511719-4.96875 2.4375-7.382813.347656-.894531.640625-1.808594 1.019531-2.6875 1.183594-2.777344 2.574219-5.464844 4.078125-8.097656.632813-1.109375 1.3125-2.199219 1.992188-3.277344 1.367187-2.152344 2.839844-4.242187 4.414062-6.273437.410156-.519532.769532-1.070313 1.1875-1.585938l28.527344 28.53125c-1.289062 1.941406-2.34375 4.007812-3.265625 6.125-.0625.144531-.152344.265625-.214844.402344-1.023437 2.421875-1.824219 4.941406-2.34375 7.535156h-40.394531c0-.039062 0-.078125.007812-.121094.339844-3.382812.96875-6.695312 1.730469-9.96875zm35.113281-49.421875c1.078126-.6875 2.167969-1.359375 3.277344-1.992187 2.632813-1.496094 5.320313-2.894532 8.097656-4.082032.878907-.375 1.792969-.671874 2.6875-1.015624 2.414063-.925782 4.878907-1.75 7.382813-2.4375 1.066406-.296876 2.128906-.578126 3.199219-.824219 3.28125-.753907 6.59375-1.394531 9.976562-1.730469.042969-.007812.082032 0 .121094-.007812v40.402343c-2.59375.527344-5.113281 1.328125-7.535156 2.34375-.144532.054688-.265625.152344-.402344.214844-2.117188.921875-4.183594 1.976563-6.125 3.265625l-28.53125-28.527344c.515625-.417968 1.066406-.777344 1.585938-1.1875 2.023437-1.582031 4.121093-3.054687 6.265624-4.421875zm50.863282-12.082031c3.382812.335938 6.695312.976562 9.976562 1.730469 1.078125.246093 2.140625.527343 3.199219.824219 2.503906.6875 4.96875 1.511718 7.382813 2.4375.894531.34375 1.808593.640624 2.6875 1.015624 2.777343 1.1875 5.464843 2.578126 8.097656 4.082032 1.109375.632812 2.199218 1.3125 3.277344 1.992187 2.152343 1.367188 4.242187 2.839844 6.273437 4.414063.519531.410156 1.074219.769531 1.585937 1.1875l-28.53125 28.527344c-1.941406-1.289063-4.007812-2.34375-6.125-3.265626-.144531-.0625-.265624-.152343-.402343-.214843-2.429688-1.015625-4.949219-1.816407-7.542969-2.335938v-40.394531zm65.496094 48.296875c.359374.839844.640624 1.722656.96875 2.578125.933593 2.4375 1.765624 4.917969 2.453124 7.445312.289063 1.050782.570313 2.105469.816407 3.167969.761719 3.28125 1.390625 6.601563 1.738281 9.992188 0 .042969 0 .082031.007812.121093h-40.402343c-.527344-2.59375-1.328125-5.113281-2.34375-7.535156-.054688-.144531-.152344-.265625-.214844-.402344-.921875-2.117187-1.976563-4.183593-3.265625-6.125l28.527344-28.53125c.417968.515626.777344 1.066407 1.1875 1.585938 1.582031 2.023438 3.054687 4.121094 4.421875 6.273438.679687 1.078124 1.351562 2.160156 1.992187 3.269531 1.511719 2.648437 2.921875 5.351562 4.113282 8.160156zm-64.296876 53.410156c-1.175781.496094-2.425781.839844-3.6875 1.144531-.289062.070313-.554687.191407-.839843.253907-1.546875.320312-3.152344.488281-4.792969.488281s-3.246094-.167969-4.800781-.488281c-.296875-.054688-.558594-.183594-.847657-.253907-1.253906-.304687-2.503906-.648437-3.671874-1.144531-.121094-.050781-.214844-.128906-.335938-.175781-5.472656-2.417969-9.863281-6.808594-12.28125-12.28125-.046875-.113281-.125-.214844-.175781-.335938-.496094-1.167968-.839844-2.417968-1.144531-3.671874-.070313-.289063-.199219-.558594-.253907-.847657-.320312-1.554687-.488281-3.160156-.488281-4.800781s.167969-3.246094.488281-4.800781c.054688-.289063.183594-.550781.253907-.839844.304687-1.261719.648437-2.511719 1.144531-3.6875.058593-.128906.136719-.238281.191406-.359375 2.417969-5.441406 6.777344-9.808594 12.210937-12.222656.136719-.066406.253907-.152344.390626-.210938 1.167968-.496094 2.410156-.832031 3.664062-1.136718.296875-.070313.566406-.199219.863281-.261719 1.546875-.3125 3.152344-.480469 4.792969-.480469s3.246094.167969 4.800781.488281c.289063.054688.558594.183594.847657.253907 1.253906.304687 2.503906.648437 3.671874 1.144531.144532.066406.273438.160156.414063.226562 5.402344 2.414063 9.746094 6.75 12.160156 12.160157.066407.140624.160157.269531.226563.414062.496094 1.167969.832031 2.417969 1.144531 3.671875.070313.289063.199219.5625.253906.847656.3125 1.546875.480469 3.152344.480469 4.792969s-.167969 3.246094-.488281 4.800781c-.0625.296875-.191407.566407-.265625.863281-.300782 1.257813-.644532 2.496094-1.132813 3.664063-.058593.136719-.152343.257813-.210937.390625-2.414063 5.433594-6.78125 9.800781-12.222656 12.210938-.121094.046874-.230469.132812-.359376.183593zm0 0"/><path d="m355.199219 182.398438c1.386719 1.042968 3.066406 1.601562 4.800781 1.601562h40v-16h-37.335938l-29.863281-22.398438c-1.386719-1.042968-3.066406-1.601562-4.800781-1.601562h-40v16h37.335938zm0 0"/><path d="m355.199219 201.601562-29.863281 22.398438h-37.335938v16h40c1.734375 0 3.414062-.558594 4.800781-1.601562l29.863281-22.398438h37.335938v-16h-40c-1.734375 0-3.414062.558594-4.800781 1.601562zm0 0"/><path d="m304 184h32v16h-32zm0 0"/><path d="m464 96h16v16h-16zm0 0"/><path d="m464 272h16v16h-16zm0 0"/></svg>